# xmcd
#
# Track frame offsets:
#	150
#	17310
#	30576
#	42753
#	57806
#	70777
#	86376
#	100048
#	112378
#	128997
#	144431
#	157635
#
# Disc length: 2259 seconds
#
# Revision: 2
# Processed by: cddbd v1.4b41PL2 Copyright (c) Steve Scherf et al.
# Submitted via: EZCDDA 4.3.2
#
DISCID=8b08d10c
DTITLE=Gilberto and Gilmar - Maria Tchá Tchá Tchá
DYEAR=1900
DGENRE=
TTITLE0=Errar é humano
TTITLE1=Pé de lã
TTITLE2=Só tô a pó
TTITLE3=Quebrando tudo
TTITLE4=Faz tempo que te tenteio
TTITLE5=Maria Tchá Tchá Tchá
TTITLE6=O peito do Pedro é preto
TTITLE7=Comi demais
TTITLE8=Depois de você
TTITLE9=Desse jeito não tem jeito não
TTITLE10=Me belisca e me cutuca
TTITLE11=Ingrata (Moda de viola)
EXTD=
EXTT0=
EXTT1=
EXTT2=
EXTT3=
EXTT4=
EXTT5=
EXTT6=
EXTT7=
EXTT8=
EXTT9=
EXTT10=
EXTT11=
PLAYORDER=
